<svg width="364" height="72" viewBox="0 0 364 72" fill="none" xmlns="http://www.w3.org/2000/svg">
<path d="M18.9844 1.17188C19.2969 0.390625 19.8177 0.104167 20.5469 0.3125C21.3021 0.520833 21.6146 1.04167 21.4844 1.875C20.4427 5.85938 19.3229 9.84375 18.125 13.8281C13.8281 27.9688 8.69792 41.7969 2.73438 55.3125C2.26562 55.9635 1.66667 56.1198 0.9375 55.7812C0.3125 55.3125 0.15625 54.7135 0.46875 53.9844C2.13542 50.2344 3.72396 46.4453 5.23438 42.6172C10.651 29.0755 15.2344 15.2604 18.9844 1.17188ZM41.3672 55.1172C41.0286 55.8984 40.4948 56.1979 39.7656 56.0156C39.0365 55.8073 38.724 55.2734 38.8281 54.4141C39.9219 50.4297 41.0677 46.4583 42.2656 42.5C46.5885 28.3594 51.7448 14.5312 57.7344 1.01562C58.2031 0.390625 58.8021 0.247396 59.5312 0.585938C60.1562 1.02865 60.3125 1.61458 60 2.34375C58.3333 6.09375 56.7318 9.88281 55.1953 13.7109C49.7526 27.2266 45.1432 41.0286 41.3672 55.1172ZM9.57031 3.32031C8.73698 3.1901 8.30729 2.7474 8.28125 1.99219C8.28125 1.23698 8.71094 0.807292 9.57031 0.703125C13.8932 0.833333 18.2161 0.924479 22.5391 0.976562C37.7995 1.13281 53.0339 0.846354 68.2422 0.117188C69.1016 0.195312 69.5312 0.611979 69.5312 1.36719C69.5312 2.1224 69.1016 2.57812 68.2422 2.73438C63.9193 2.94271 59.5964 3.11198 55.2734 3.24219C40.0391 3.73698 24.8047 3.76302 9.57031 3.32031ZM56.3281 32.1094C56.7969 31.7448 57.2526 31.7448 57.6953 32.1094C58.0599 32.5521 58.0599 33.0078 57.6953 33.4766C57.3047 33.9714 56.9401 34.4922 56.6016 35.0391C55.9505 36.0026 55.4818 37.0964 55.1953 38.3203C54.9349 39.5443 55.2344 40.638 56.0938 41.6016C56.9531 42.4349 57.9167 42.7995 58.9844 42.6953C60.0521 42.5911 61.0547 42.2266 61.9922 41.6016C64.0495 40.2734 65.5078 38.4635 66.3672 36.1719C67.0182 34.1146 66.5625 32.3828 65 30.9766C64.2708 30.4557 63.4375 30.2214 62.5 30.2734C61.4583 30.3776 60.4948 30.7552 59.6094 31.4062C58.75 32.0312 58.0078 32.7865 57.3828 33.6719C56.7578 34.5573 56.224 35.4818 55.7812 36.4453C54.7135 38.6589 53.75 40.9245 52.8906 43.2422C51.7448 46.1589 50.6901 49.1276 49.7266 52.1484C47.8255 58.112 46.25 64.1536 45 70.2734C44.7917 70.8203 44.401 71.0547 43.8281 70.9766C43.2812 70.7422 43.0599 70.3385 43.1641 69.7656C43.3203 68.9323 43.4896 68.099 43.6719 67.2656C45.1302 60.5208 47.0052 53.9062 49.2969 47.4219C50.3646 44.401 51.5234 41.4193 52.7734 38.4766C53.6589 36.0547 54.8828 33.8151 56.4453 31.7578C57.2526 30.7682 58.2161 29.9479 59.3359 29.2969C60.4818 28.6198 61.7057 28.2943 63.0078 28.3203C65.6641 28.6328 67.4349 30.0651 68.3203 32.6172C68.7109 33.9193 68.7109 35.2083 68.3203 36.4844C67.9297 37.7344 67.3177 38.8932 66.4844 39.9609C65.651 41.1068 64.6484 42.1094 63.4766 42.9688C62.3047 43.8281 61.0026 44.375 59.5703 44.6094C58.1641 44.7656 56.862 44.4661 55.6641 43.7109C54.4661 42.9557 53.6849 41.862 53.3203 40.4297C53.0599 38.8932 53.2552 37.4219 53.9062 36.0156C54.5573 34.5833 55.3646 33.2812 56.3281 32.1094ZM84.5312 38.3203C84.0885 38.8411 83.5677 38.9583 82.9688 38.6719C82.3958 38.3594 82.2526 37.8906 82.5391 37.2656C82.9818 36.6667 83.3984 36.0417 83.7891 35.3906C84.2057 34.7135 84.3099 33.9974 84.1016 33.2422C83.6068 31.9401 82.5651 31.1589 80.9766 30.8984C79.4401 30.7161 77.9557 30.9896 76.5234 31.7188C75.0911 32.4479 73.9453 33.3464 73.0859 34.4141C72.2786 35.3776 71.6797 36.4844 71.2891 37.7344C70.9245 38.9583 71.0938 40.1172 71.7969 41.2109C72.6302 42.1745 73.75 42.6042 75.1562 42.5C76.5625 42.3698 77.7734 41.888 78.7891 41.0547C79.8307 40.1693 80.7552 39.2057 81.5625 38.1641C82.3958 37.1224 83.3464 36.1719 84.4141 35.3125C85.0391 34.9219 85.5859 34.9349 86.0547 35.3516C86.5495 35.7682 86.5495 36.237 86.0547 36.7578C85.8464 37.0964 85.7161 37.5651 85.6641 38.1641C85.5078 38.8411 85.3906 39.5182 85.3125 40.1953C85.1562 41.4974 85.6771 42.5391 86.875 43.3203C87.3177 43.7891 87.3177 44.2708 86.875 44.7656C86.3281 45.1562 85.7682 45.1562 85.1953 44.7656C83.6068 43.5677 82.8646 42.0443 82.9688 40.1953C83.0729 39.2839 83.2292 38.3724 83.4375 37.4609C83.4896 36.6276 83.8151 35.9115 84.4141 35.3125C84.9609 35.7812 85.5078 36.263 86.0547 36.7578C84.7005 37.9297 83.4635 39.2188 82.3438 40.625C81.224 42.0312 79.7786 43.125 78.0078 43.9062C76.2109 44.6354 74.388 44.7266 72.5391 44.1797C70.6901 43.5286 69.5182 42.3568 69.0234 40.6641C68.6328 39.0234 68.7891 37.4219 69.4922 35.8594C70.2214 34.2969 71.25 32.9557 72.5781 31.8359C74.0104 30.5859 75.7292 29.6875 77.7344 29.1406C79.7656 28.5677 81.7188 28.7109 83.5938 29.5703C85.3125 30.5078 86.3021 31.849 86.5625 33.5938C86.6146 34.4792 86.4193 35.3125 85.9766 36.0938C85.5339 36.849 85.0521 37.5911 84.5312 38.3203ZM95.625 27.9688C96.0938 27.4219 96.6016 27.3177 97.1484 27.6562C97.6953 27.9688 97.8255 28.4505 97.5391 29.1016C94.6484 33.6068 92.2786 38.3854 90.4297 43.4375C90.1953 44.0365 89.7526 44.2839 89.1016 44.1797C88.4766 43.9453 88.2161 43.5026 88.3203 42.8516C90.2214 37.6172 92.6562 32.6562 95.625 27.9688ZM107.109 28.1641C107.63 27.7474 108.138 27.7474 108.633 28.1641C109.076 28.7109 109.076 29.2318 108.633 29.7266C105.82 32.2266 102.799 34.4792 99.5703 36.4844C96.3932 38.3594 92.9818 39.5182 89.3359 39.9609C89.0234 39.9609 88.763 39.8438 88.5547 39.6094C88.3464 39.375 88.2422 39.1146 88.2422 38.8281C88.2422 38.2031 88.6068 37.8385 89.3359 37.7344C92.7995 37.3177 95.9766 36.1849 98.8672 34.3359C101.784 32.487 104.531 30.4297 107.109 28.1641ZM91.0156 38.2422C90.599 37.7214 90.599 37.2005 91.0156 36.6797C91.5365 36.263 92.0573 36.263 92.5781 36.6797C96.901 40.0391 101.797 41.888 107.266 42.2266C107.969 42.3568 108.32 42.7474 108.32 43.3984C108.346 44.0495 107.995 44.401 107.266 44.4531C101.224 44.0625 95.8073 41.9922 91.0156 38.2422ZM120.859 28.9062C121.224 28.4115 121.641 28.3073 122.109 28.5938C122.604 28.8802 122.734 29.2969 122.5 29.8438C119.896 34.375 117.773 39.1146 116.133 44.0625C115.872 44.6094 115.469 44.8177 114.922 44.6875C114.401 44.5312 114.193 44.1536 114.297 43.5547C115.99 38.4505 118.177 33.5677 120.859 28.9062ZM130.156 28.5547C130.781 28.6589 131.094 28.9844 131.094 29.5312C131.094 29.7656 131.003 29.987 130.82 30.1953C130.638 30.3776 130.417 30.4688 130.156 30.4688C124.141 29.974 118.229 30.5078 112.422 32.0703C111.797 32.1484 111.406 31.9271 111.25 31.4062C111.12 30.8594 111.341 30.4688 111.914 30.2344C117.904 28.6198 123.984 28.0599 130.156 28.5547ZM132.734 28.7109C133.151 28.1901 133.62 28.0859 134.141 28.3984C134.661 28.6849 134.792 29.1406 134.531 29.7656C131.927 34.2188 129.805 38.8802 128.164 43.75C127.852 44.349 127.409 44.5703 126.836 44.4141C126.263 44.2578 126.042 43.8542 126.172 43.2031C127.865 38.151 130.052 33.3203 132.734 28.7109ZM127.93 44.1797C127.305 44.4141 126.836 44.2708 126.523 43.75C126.237 43.2292 126.354 42.7734 126.875 42.3828C133.802 38.4766 140.404 34.1146 146.68 29.2969C147.122 29.0625 147.539 29.1146 147.93 29.4531C148.242 29.8177 148.294 30.2344 148.086 30.7031C145.898 35.3906 144.049 40.1953 142.539 45.1172C142.279 45.7422 141.849 45.9766 141.25 45.8203C140.677 45.6641 140.443 45.2474 140.547 44.5703C142.135 39.4661 144.049 34.4922 146.289 29.6484C146.758 30.1172 147.227 30.5859 147.695 31.0547C141.419 35.8984 134.831 40.2734 127.93 44.1797ZM154.062 27.9688C154.531 27.4219 155.039 27.3177 155.586 27.6562C156.133 27.9688 156.263 28.4505 155.977 29.1016C153.086 33.6068 150.716 38.3854 148.867 43.4375C148.633 44.0365 148.19 44.2839 147.539 44.1797C146.914 43.9453 146.654 43.5026 146.758 42.8516C148.659 37.6172 151.094 32.6562 154.062 27.9688ZM165.547 28.1641C166.068 27.7474 166.576 27.7474 167.07 28.1641C167.513 28.7109 167.513 29.2318 167.07 29.7266C164.258 32.2266 161.237 34.4792 158.008 36.4844C154.831 38.3594 151.419 39.5182 147.773 39.9609C147.461 39.9609 147.201 39.8438 146.992 39.6094C146.784 39.375 146.68 39.1146 146.68 38.8281C146.68 38.2031 147.044 37.8385 147.773 37.7344C151.237 37.3177 154.414 36.1849 157.305 34.3359C160.221 32.487 162.969 30.4297 165.547 28.1641ZM149.453 38.2422C149.036 37.7214 149.036 37.2005 149.453 36.6797C149.974 36.263 150.495 36.263 151.016 36.6797C155.339 40.0391 160.234 41.888 165.703 42.2266C166.406 42.3568 166.758 42.7474 166.758 43.3984C166.784 44.0495 166.432 44.401 165.703 44.4531C159.661 44.0625 154.245 41.9922 149.453 38.2422ZM184.062 38.3203C183.62 38.8411 183.099 38.9583 182.5 38.6719C181.927 38.3594 181.784 37.8906 182.07 37.2656C182.513 36.6667 182.93 36.0417 183.32 35.3906C183.737 34.7135 183.841 33.9974 183.633 33.2422C183.138 31.9401 182.096 31.1589 180.508 30.8984C178.971 30.7161 177.487 30.9896 176.055 31.7188C174.622 32.4479 173.477 33.3464 172.617 34.4141C171.81 35.3776 171.211 36.4844 170.82 37.7344C170.456 38.9583 170.625 40.1172 171.328 41.2109C172.161 42.1745 173.281 42.6042 174.688 42.5C176.094 42.3698 177.305 41.888 178.32 41.0547C179.362 40.1693 180.286 39.2057 181.094 38.1641C181.927 37.1224 182.878 36.1719 183.945 35.3125C184.57 34.9219 185.117 34.9349 185.586 35.3516C186.081 35.7682 186.081 36.237 185.586 36.7578C185.378 37.0964 185.247 37.5651 185.195 38.1641C185.039 38.8411 184.922 39.5182 184.844 40.1953C184.688 41.4974 185.208 42.5391 186.406 43.3203C186.849 43.7891 186.849 44.2708 186.406 44.7656C185.859 45.1562 185.299 45.1562 184.727 44.7656C183.138 43.5677 182.396 42.0443 182.5 40.1953C182.604 39.2839 182.76 38.3724 182.969 37.4609C183.021 36.6276 183.346 35.9115 183.945 35.3125C184.492 35.7812 185.039 36.263 185.586 36.7578C184.232 37.9297 182.995 39.2188 181.875 40.625C180.755 42.0312 179.31 43.125 177.539 43.9062C175.742 44.6354 173.919 44.7266 172.07 44.1797C170.221 43.5286 169.049 42.3568 168.555 40.6641C168.164 39.0234 168.32 37.4219 169.023 35.8594C169.753 34.2969 170.781 32.9557 172.109 31.8359C173.542 30.5859 175.26 29.6875 177.266 29.1406C179.297 28.5677 181.25 28.7109 183.125 29.5703C184.844 30.5078 185.833 31.849 186.094 33.5938C186.146 34.4792 185.951 35.3125 185.508 36.0938C185.065 36.849 184.583 37.5911 184.062 38.3203ZM213.516 28.75C213.88 28.2292 214.31 28.125 214.805 28.4375C215.326 28.724 215.469 29.1667 215.234 29.7656C212.734 34.2969 210.716 39.0365 209.18 43.9844C208.893 44.5573 208.477 44.7786 207.93 44.6484C207.383 44.4922 207.161 44.0885 207.266 43.4375C208.854 38.3333 210.938 33.4375 213.516 28.75ZM225.352 28.8672C225.69 28.3724 226.133 28.2552 226.68 28.5156C227.174 28.8802 227.292 29.3359 227.031 29.8828C224.974 34.6484 223.229 39.5312 221.797 44.5312C221.536 45.1302 221.133 45.3516 220.586 45.1953C220.039 45.0391 219.805 44.6484 219.883 44.0234C221.367 38.8411 223.19 33.7891 225.352 28.8672ZM227.812 28.3984C228.464 28.4766 228.789 28.8021 228.789 29.375C228.789 29.6354 228.685 29.8698 228.477 30.0781C228.294 30.2865 228.073 30.3906 227.812 30.3906C222.057 29.8958 216.406 30.4297 210.859 31.9922C210.234 32.0703 209.844 31.8359 209.688 31.2891C209.531 30.7161 209.753 30.3125 210.352 30.0781C216.055 28.4635 221.875 27.9036 227.812 28.3984ZM231.523 32.5781C232.018 32.1875 232.513 32.1875 233.008 32.5781C233.398 33.0729 233.398 33.5677 233.008 34.0625C232.018 35.2344 231.38 36.5755 231.094 38.0859C230.964 38.737 230.924 39.4271 230.977 40.1562C231.055 40.8854 231.354 41.4844 231.875 41.9531C232.969 42.7344 234.193 43.0339 235.547 42.8516C236.901 42.6432 238.099 42.1875 239.141 41.4844C241.406 39.8958 242.865 37.7604 243.516 35.0781C243.802 33.8542 243.568 32.7474 242.812 31.7578C242.005 30.9245 241.016 30.5469 239.844 30.625C238.49 30.8594 237.422 31.5625 236.641 32.7344C235.859 33.9062 235.234 35.0911 234.766 36.2891C234.531 36.862 234.115 37.0964 233.516 36.9922C232.917 36.7578 232.669 36.3411 232.773 35.7422C233.138 34.7786 233.555 33.8411 234.023 32.9297C234.518 32.0182 235.13 31.1979 235.859 30.4688C237.318 29.0365 239.049 28.4115 241.055 28.5938C242.695 28.8802 243.971 29.7135 244.883 31.0938C245.768 32.6823 245.938 34.362 245.391 36.1328C244.349 39.5964 242.253 42.2005 239.102 43.9453C237.461 44.7526 235.742 45.0651 233.945 44.8828C233.086 44.7786 232.266 44.5312 231.484 44.1406C230.703 43.75 230.065 43.1771 229.57 42.4219C229.128 41.6406 228.893 40.7943 228.867 39.8828C228.841 38.9453 228.932 38.0469 229.141 37.1875C229.583 35.4688 230.378 33.9323 231.523 32.5781ZM245.742 44.5312C245.326 44.8958 244.896 44.8958 244.453 44.5312C244.089 44.1146 244.089 43.6849 244.453 43.2422C245.417 42.0443 246.367 40.8203 247.305 39.5703C248.346 38.1901 249.323 36.7708 250.234 35.3125C251.589 33.2292 252.982 31.1719 254.414 29.1406C254.779 28.724 255.156 28.6068 255.547 28.7891C255.964 28.9714 256.159 29.3229 256.133 29.8438C255.82 31.7448 255.482 33.6328 255.117 35.5078C254.753 37.3828 254.466 39.2708 254.258 41.1719C253.789 40.9115 253.333 40.651 252.891 40.3906C255.078 39.0625 257.018 37.4479 258.711 35.5469C259.674 34.4531 260.586 33.3333 261.445 32.1875C262.305 31.0417 263.216 29.9349 264.18 28.8672C264.544 28.5547 264.922 28.5156 265.312 28.75C265.703 28.9583 265.846 29.2969 265.742 29.7656C265.273 31.0938 264.844 32.4219 264.453 33.75C264.089 35.1562 263.763 36.5625 263.477 37.9688C263.008 40.0521 262.435 42.1094 261.758 44.1406C261.497 44.6875 261.107 44.8958 260.586 44.7656C260.065 44.6094 259.87 44.2318 260 43.6328C260.417 42.2786 260.807 40.9115 261.172 39.5312C261.536 38.125 261.862 36.7057 262.148 35.2734C262.643 33.2422 263.242 31.25 263.945 29.2969C264.466 29.5833 264.987 29.8828 265.508 30.1953C264.518 31.2891 263.581 32.4219 262.695 33.5938C261.81 34.7656 260.885 35.8984 259.922 36.9922C258.125 38.9453 256.094 40.612 253.828 41.9922C253.516 42.1484 253.203 42.1484 252.891 41.9922C252.578 41.8099 252.422 41.5365 252.422 41.1719C252.63 39.1927 252.917 37.2266 253.281 35.2734C253.646 33.2943 253.997 31.3281 254.336 29.375C254.909 29.6094 255.469 29.8438 256.016 30.0781C255.052 31.4323 254.115 32.7995 253.203 34.1797C252.24 35.6641 251.263 37.1484 250.273 38.6328C248.841 40.6641 247.331 42.6302 245.742 44.5312ZM268.711 32.5781C269.206 32.1875 269.701 32.1875 270.195 32.5781C270.586 33.0729 270.586 33.5677 270.195 34.0625C269.206 35.2344 268.568 36.5755 268.281 38.0859C268.151 38.737 268.112 39.4271 268.164 40.1562C268.242 40.8854 268.542 41.4844 269.062 41.9531C270.156 42.7344 271.38 43.0339 272.734 42.8516C274.089 42.6432 275.286 42.1875 276.328 41.4844C278.594 39.8958 280.052 37.7604 280.703 35.0781C280.99 33.8542 280.755 32.7474 280 31.7578C279.193 30.9245 278.203 30.5469 277.031 30.625C275.677 30.8594 274.609 31.5625 273.828 32.7344C273.047 33.9062 272.422 35.0911 271.953 36.2891C271.719 36.862 271.302 37.0964 270.703 36.9922C270.104 36.7578 269.857 36.3411 269.961 35.7422C270.326 34.7786 270.742 33.8411 271.211 32.9297C271.706 32.0182 272.318 31.1979 273.047 30.4688C274.505 29.0365 276.237 28.4115 278.242 28.5938C279.883 28.8802 281.159 29.7135 282.07 31.0938C282.956 32.6823 283.125 34.362 282.578 36.1328C281.536 39.5964 279.44 42.2005 276.289 43.9453C274.648 44.7526 272.93 45.0651 271.133 44.8828C270.273 44.7786 269.453 44.5312 268.672 44.1406C267.891 43.75 267.253 43.1771 266.758 42.4219C266.315 41.6406 266.081 40.7943 266.055 39.8828C266.029 38.9453 266.12 38.0469 266.328 37.1875C266.771 35.4688 267.565 33.9323 268.711 32.5781ZM286.406 30.4688C285.729 30.5729 285.273 30.2995 285.039 29.6484C284.909 28.9714 285.169 28.5156 285.82 28.2812C287.487 27.9427 289.18 27.6953 290.898 27.5391C292.331 27.3568 293.633 27.6693 294.805 28.4766C296.029 29.5182 296.654 30.7552 296.68 32.1875C296.732 33.5938 296.432 35 295.781 36.4062C295.156 37.8125 294.401 39.0104 293.516 40C291.979 41.7448 290.156 42.9948 288.047 43.75C285.964 44.4792 283.802 44.9479 281.562 45.1562C281.25 45.1823 280.977 45.0781 280.742 44.8438C280.534 44.5833 280.43 44.3099 280.43 44.0234C280.43 43.3724 280.807 42.9948 281.562 42.8906C283.646 42.7344 285.664 42.2786 287.617 41.5234C291.029 40.013 293.242 37.474 294.258 33.9062C294.44 33.2031 294.453 32.474 294.297 31.7188C294.167 30.9375 293.737 30.3646 293.008 30C292.096 29.7135 291.159 29.6745 290.195 29.8828C288.945 30.013 287.682 30.2083 286.406 30.4688ZM297.969 28.0859C298.385 27.487 298.88 27.3568 299.453 27.6953C300.026 28.0078 300.182 28.5156 299.922 29.2188C297.76 33.5417 296.484 38.125 296.094 42.9688C295.99 43.724 295.612 44.1016 294.961 44.1016C294.674 44.1016 294.414 43.9974 294.18 43.7891C293.945 43.5547 293.828 43.2812 293.828 42.9688C294.245 37.7344 295.625 32.7734 297.969 28.0859ZM309.961 28.5938C310.534 29.0365 310.651 29.5443 310.312 30.1172C310 30.6901 309.505 30.8333 308.828 30.5469C307.76 29.974 306.68 29.7917 305.586 30C304.492 30.1823 303.477 30.625 302.539 31.3281C301.523 32.0312 300.612 32.9688 299.805 34.1406C298.997 35.2865 298.555 36.4844 298.477 37.7344C298.424 38.9583 298.997 40.0651 300.195 41.0547C301.055 41.7057 302.044 42.1094 303.164 42.2656C304.284 42.4219 305.378 42.487 306.445 42.4609C308.919 42.4089 311.302 41.9531 313.594 41.0938C314.271 40.9635 314.74 41.224 315 41.875C315.104 42.5521 314.844 43.0208 314.219 43.2812C311.094 44.4271 307.865 44.8828 304.531 44.6484C303.229 44.5703 301.966 44.3229 300.742 43.9062C299.544 43.4635 298.516 42.7344 297.656 41.7188C296.797 40.599 296.328 39.388 296.25 38.0859C296.198 36.7839 296.484 35.4948 297.109 34.2188C297.839 32.7083 298.893 31.3542 300.273 30.1562C301.68 28.9583 303.229 28.1771 304.922 27.8125C306.615 27.4219 308.294 27.6823 309.961 28.5938ZM315.039 40.9766C314.753 41.0026 314.505 40.8984 314.297 40.6641C314.089 40.4297 313.984 40.1823 313.984 39.9219C313.984 39.3229 314.336 38.9844 315.039 38.9062C316.966 38.724 318.906 38.4375 320.859 38.0469C322.812 37.6562 324.674 37.0182 326.445 36.1328C328.008 35.4036 329.349 34.388 330.469 33.0859C330.964 32.5391 331.198 31.9271 331.172 31.25C331.094 30.9375 330.885 30.7292 330.547 30.625C330.234 30.4948 329.935 30.4167 329.648 30.3906C327.826 30.2083 326.146 30.5469 324.609 31.4062C323.073 32.2656 321.901 33.5026 321.094 35.1172C320.365 36.6536 320.13 38.2552 320.391 39.9219C320.521 40.7031 320.898 41.3151 321.523 41.7578C322.096 42.1224 322.721 42.3438 323.398 42.4219C324.987 42.526 326.484 42.2005 327.891 41.4453C329.297 40.7682 330.586 39.9219 331.758 38.9062C332.253 38.4896 332.747 38.4896 333.242 38.9062C333.633 39.401 333.633 39.8958 333.242 40.3906C331.654 41.8229 329.779 42.9818 327.617 43.8672C325.482 44.7526 323.359 44.7917 321.25 43.9844C319.844 43.3073 318.932 42.3047 318.516 40.9766C318.125 39.6484 318.086 38.2422 318.398 36.7578C318.711 35.2734 319.232 33.9714 319.961 32.8516C321.237 30.9766 322.943 29.6484 325.078 28.8672C326.068 28.5026 327.135 28.2943 328.281 28.2422C329.453 28.1641 330.534 28.3333 331.523 28.75C332.591 29.2708 333.177 30.1302 333.281 31.3281C333.255 32.4479 332.878 33.4505 332.148 34.3359C330.794 35.9245 329.167 37.1615 327.266 38.0469C325.365 38.9583 323.372 39.6224 321.289 40.0391C319.206 40.4557 317.122 40.7682 315.039 40.9766ZM346.016 28.9062C346.38 28.4115 346.797 28.3073 347.266 28.5938C347.76 28.8802 347.891 29.2969 347.656 29.8438C345.052 34.375 342.93 39.1146 341.289 44.0625C341.029 44.6094 340.625 44.8177 340.078 44.6875C339.557 44.5312 339.349 44.1536 339.453 43.5547C341.146 38.4505 343.333 33.5677 346.016 28.9062ZM355.312 28.5547C355.938 28.6589 356.25 28.9844 356.25 29.5312C356.25 29.7656 356.159 29.987 355.977 30.1953C355.794 30.3776 355.573 30.4688 355.312 30.4688C349.297 29.974 343.385 30.5078 337.578 32.0703C336.953 32.1484 336.562 31.9271 336.406 31.4062C336.276 30.8594 336.497 30.4688 337.07 30.2344C343.06 28.6198 349.141 28.0599 355.312 28.5547ZM359.258 44.5703C358.945 44.6484 358.646 44.6484 358.359 44.5703C358.229 44.5182 358.099 44.4661 357.969 44.4141C357.734 44.2578 357.539 44.0625 357.383 43.8281C357.331 43.6979 357.279 43.5677 357.227 43.4375C357.148 43.2031 357.135 42.9818 357.188 42.7734C357.214 42.5391 357.279 42.3307 357.383 42.1484C357.487 41.9661 357.63 41.8229 357.812 41.7188C357.969 41.5625 358.151 41.4583 358.359 41.4062C358.724 41.3281 359.076 41.3281 359.414 41.4062C359.622 41.4583 359.805 41.5365 359.961 41.6406C360.247 41.8229 360.495 42.0573 360.703 42.3438C360.755 42.4479 360.807 42.5651 360.859 42.6953C360.911 42.7995 360.951 42.9036 360.977 43.0078C361.003 43.1641 361.029 43.3333 361.055 43.5156C361.055 43.5417 361.055 43.5807 361.055 43.6328C361.055 43.6328 361.055 43.6458 361.055 43.6719C361.029 43.8281 361.003 43.9844 360.977 44.1406C360.951 44.349 360.872 44.5312 360.742 44.6875C360.664 44.8177 360.573 44.9349 360.469 45.0391C360.469 45.0651 360.456 45.0781 360.43 45.0781C360.326 45.2083 360.195 45.3125 360.039 45.3906C359.492 45.7031 358.945 45.7031 358.398 45.3906C358.242 45.3125 358.099 45.2083 357.969 45.0781C357.891 45 357.812 44.9089 357.734 44.8047C357.682 44.7266 357.617 44.6484 357.539 44.5703C357.461 44.4141 357.396 44.2448 357.344 44.0625C357.318 43.8802 357.292 43.6979 357.266 43.5156C357.266 43.4896 357.266 43.4505 357.266 43.3984C357.266 43.3724 357.266 43.3333 357.266 43.2812C357.292 43.099 357.318 42.9297 357.344 42.7734C357.344 42.7214 357.357 42.6823 357.383 42.6562C357.435 42.474 357.5 42.3047 357.578 42.1484C357.604 42.0703 357.643 42.0052 357.695 41.9531C357.799 41.7969 357.917 41.6536 358.047 41.5234C358.073 41.4974 358.099 41.4714 358.125 41.4453C358.255 41.3411 358.385 41.237 358.516 41.1328C358.62 41.0807 358.724 41.0417 358.828 41.0156C358.906 40.9635 358.997 40.9245 359.102 40.8984C359.128 40.8984 359.154 40.8984 359.18 40.8984C359.336 40.8724 359.492 40.8464 359.648 40.8203C359.857 40.8203 360.078 40.8464 360.312 40.8984C360.573 40.9766 360.807 41.1198 361.016 41.3281C361.094 41.4323 361.185 41.5495 361.289 41.6797C361.419 41.9141 361.484 42.1875 361.484 42.5C361.484 42.6302 361.471 42.7734 361.445 42.9297C361.393 43.138 361.289 43.3203 361.133 43.4766C361.029 43.6589 360.885 43.8021 360.703 43.9062C360.495 44.0365 360.286 44.1016 360.078 44.1016C359.87 44.1536 359.648 44.1406 359.414 44.0625C359.388 44.0625 359.362 44.0625 359.336 44.0625C359.466 44.0625 359.609 44.0755 359.766 44.1016C359.714 44.1016 359.661 44.1016 359.609 44.1016C359.74 44.0755 359.883 44.0625 360.039 44.0625C359.987 44.0625 359.935 44.0755 359.883 44.1016C360.013 44.0495 360.143 43.9974 360.273 43.9453C360.221 43.9453 360.169 43.9714 360.117 44.0234C360.221 43.9453 360.326 43.8542 360.43 43.75C360.378 43.8021 360.326 43.8672 360.273 43.9453C360.378 43.8151 360.469 43.6979 360.547 43.5938C360.495 43.6719 360.443 43.75 360.391 43.8281C360.443 43.6979 360.495 43.5677 360.547 43.4375C360.521 43.5417 360.508 43.6328 360.508 43.7109C360.508 43.5807 360.521 43.4375 360.547 43.2812C360.547 43.3594 360.547 43.4375 360.547 43.5156C360.521 43.3854 360.508 43.2422 360.508 43.0859C360.508 43.138 360.521 43.2031 360.547 43.2812C360.495 43.151 360.443 43.0208 360.391 42.8906C360.391 42.9167 360.404 42.9557 360.43 43.0078C360.352 42.9036 360.273 42.7865 360.195 42.6562C360.221 42.7083 360.26 42.7474 360.312 42.7734C360.182 42.6953 360.065 42.6172 359.961 42.5391C359.987 42.5391 360.013 42.5521 360.039 42.5781C359.492 42.5781 358.945 42.5781 358.398 42.5781C358.398 42.5781 358.411 42.5651 358.438 42.5391C358.333 42.6432 358.216 42.7344 358.086 42.8125C358.112 42.7865 358.138 42.7604 358.164 42.7344C358.086 42.8385 358.008 42.9427 357.93 43.0469C357.93 43.0208 357.943 42.9948 357.969 42.9688C357.917 43.099 357.865 43.2292 357.812 43.3594C357.812 43.3333 357.826 43.2943 357.852 43.2422C357.826 43.3724 357.799 43.5156 357.773 43.6719C357.773 43.6198 357.773 43.5677 357.773 43.5156C357.799 43.6719 357.826 43.8151 357.852 43.9453C357.826 43.8932 357.799 43.8411 357.773 43.7891C357.826 43.9193 357.891 44.0495 357.969 44.1797C357.943 44.1016 357.904 44.0365 357.852 43.9844C357.93 44.1146 358.021 44.2318 358.125 44.3359C358.099 44.2839 358.06 44.2448 358.008 44.2188C358.112 44.3229 358.229 44.4141 358.359 44.4922C358.307 44.4661 358.268 44.4401 358.242 44.4141C358.372 44.4661 358.503 44.5182 358.633 44.5703C358.581 44.5703 358.542 44.5703 358.516 44.5703C358.672 44.5703 358.815 44.5833 358.945 44.6094C358.919 44.6094 358.893 44.6094 358.867 44.6094C358.997 44.5833 359.141 44.5703 359.297 44.5703C359.271 44.5703 359.258 44.5703 359.258 44.5703ZM361.328 33.4375C361.042 33.5156 360.755 33.5156 360.469 33.4375C360.339 33.3854 360.208 33.3333 360.078 33.2812C359.844 33.125 359.648 32.9297 359.492 32.6953C359.44 32.5651 359.388 32.4349 359.336 32.3047C359.258 32.0964 359.245 31.875 359.297 31.6406C359.297 31.4323 359.362 31.237 359.492 31.0547C359.596 30.8464 359.74 30.6901 359.922 30.5859C360.078 30.4297 360.26 30.3255 360.469 30.2734C360.807 30.1953 361.159 30.1953 361.523 30.2734C361.706 30.3255 361.888 30.4036 362.07 30.5078C362.357 30.6901 362.591 30.9375 362.773 31.25C362.852 31.3542 362.917 31.4714 362.969 31.6016C362.995 31.6797 363.034 31.7708 363.086 31.875C363.112 32.0573 363.138 32.2266 363.164 32.3828C363.164 32.4349 363.164 32.474 363.164 32.5C363.164 32.526 363.164 32.5391 363.164 32.5391C363.138 32.6953 363.112 32.8516 363.086 33.0078C363.034 33.2161 362.956 33.4115 362.852 33.5938C362.773 33.6979 362.682 33.8151 362.578 33.9453C362.578 33.9453 362.565 33.9583 362.539 33.9844C362.409 34.0885 362.279 34.1927 362.148 34.2969C361.602 34.5833 361.042 34.5833 360.469 34.2969C360.339 34.1927 360.195 34.0755 360.039 33.9453C359.961 33.8672 359.896 33.7891 359.844 33.7109C359.766 33.6328 359.701 33.5417 359.648 33.4375C359.57 33.2812 359.505 33.112 359.453 32.9297C359.401 32.7734 359.375 32.6042 359.375 32.4219C359.375 32.3698 359.375 32.3307 359.375 32.3047C359.375 32.2526 359.375 32.2135 359.375 32.1875C359.375 32.0052 359.401 31.8229 359.453 31.6406C359.453 31.6146 359.466 31.5755 359.492 31.5234C359.544 31.3672 359.609 31.2109 359.688 31.0547C359.714 30.9766 359.753 30.8984 359.805 30.8203C359.909 30.6901 360.013 30.5599 360.117 30.4297C360.143 30.4036 360.169 30.3776 360.195 30.3516C360.326 30.2214 360.469 30.1172 360.625 30.0391C360.729 29.987 360.82 29.9349 360.898 29.8828C361.003 29.8568 361.107 29.8177 361.211 29.7656C361.237 29.7656 361.25 29.7656 361.25 29.7656C361.406 29.7396 361.576 29.7266 361.758 29.7266C361.966 29.7005 362.174 29.7266 362.383 29.8047C362.669 29.8828 362.917 30.026 363.125 30.2344C363.203 30.3385 363.281 30.4427 363.359 30.5469C363.516 30.8073 363.594 31.0807 363.594 31.3672C363.568 31.5234 363.542 31.6667 363.516 31.7969C363.49 32.0312 363.398 32.2266 363.242 32.3828C363.138 32.5391 362.982 32.6693 362.773 32.7734C362.591 32.9036 362.396 32.9688 362.188 32.9688C361.953 33.0208 361.732 33.0208 361.523 32.9688C361.497 32.9427 361.458 32.9297 361.406 32.9297C361.562 32.9557 361.706 32.9818 361.836 33.0078C361.784 32.9818 361.732 32.9818 361.68 33.0078C361.836 32.9818 361.992 32.9557 362.148 32.9297C362.096 32.9297 362.044 32.9427 361.992 32.9688C362.122 32.9167 362.253 32.8646 362.383 32.8125C362.331 32.8385 362.279 32.8646 362.227 32.8906C362.331 32.8125 362.435 32.7344 362.539 32.6562C362.487 32.7083 362.435 32.7604 362.383 32.8125C362.461 32.7083 362.552 32.5911 362.656 32.4609C362.578 32.5391 362.526 32.6302 362.5 32.7344C362.552 32.6042 362.604 32.474 362.656 32.3438C362.63 32.4219 362.604 32.513 362.578 32.6172C362.604 32.4609 362.63 32.3047 362.656 32.1484C362.63 32.2526 362.63 32.3438 362.656 32.4219C362.63 32.2656 362.604 32.1224 362.578 31.9922C362.604 32.0443 362.617 32.0964 362.617 32.1484C362.565 32.0182 362.513 31.888 362.461 31.7578C362.487 31.8099 362.513 31.849 362.539 31.875C362.461 31.7708 362.383 31.6667 362.305 31.5625C362.331 31.5885 362.357 31.6276 362.383 31.6797C362.279 31.5755 362.174 31.4844 362.07 31.4062C362.096 31.4323 362.122 31.4453 362.148 31.4453C361.602 31.4453 361.042 31.4453 360.469 31.4453C360.495 31.4453 360.508 31.4453 360.508 31.4453C360.404 31.5234 360.299 31.6016 360.195 31.6797C360.221 31.6536 360.247 31.6276 360.273 31.6016C360.195 31.7318 360.104 31.849 360 31.9531C360.026 31.9271 360.052 31.888 360.078 31.8359C360.026 31.9661 359.961 32.0964 359.883 32.2266C359.909 32.2005 359.922 32.1615 359.922 32.1094C359.922 32.2656 359.909 32.4089 359.883 32.5391C359.883 32.487 359.883 32.4349 359.883 32.3828C359.909 32.5391 359.922 32.6953 359.922 32.8516C359.922 32.7734 359.909 32.7083 359.883 32.6562C359.935 32.7865 359.987 32.9167 360.039 33.0469C360.013 32.9948 359.987 32.9427 359.961 32.8906C360.039 32.9948 360.117 33.099 360.195 33.2031C360.169 33.1771 360.143 33.151 360.117 33.125C360.221 33.2031 360.326 33.2812 360.43 33.3594C360.404 33.3333 360.365 33.3203 360.312 33.3203C360.443 33.3724 360.573 33.4245 360.703 33.4766C360.677 33.4505 360.651 33.4375 360.625 33.4375C360.755 33.4635 360.898 33.4896 361.055 33.5156C361.029 33.4896 360.99 33.4896 360.938 33.5156C361.094 33.4896 361.237 33.4635 361.367 33.4375C361.367 33.4375 361.354 33.4375 361.328 33.4375Z" fill="#312011"/>
</svg>
